<?xml version="1.0" standalone="no"?>
<!DOCTYPE svg PUBLIC "-//W3C//DTD SVG 20010904//EN"
 "http://www.w3.org/TR/2001/REC-SVG-20010904/DTD/svg10.dtd">
<svg version="1.0" xmlns="http://www.w3.org/2000/svg"
 width="700.000000pt" height="700.000000pt" viewBox="0 0 700.000000 700.000000"
 preserveAspectRatio="xMidYMid meet">
<metadata>
Created by potrace 1.14, written by Peter Selinger 2001-2017
</metadata>
<g transform="translate(0.000000,700.000000) scale(0.100000,-0.100000)"
fill="#000000" stroke="none">
<path d="M5118 6124 c-2 -1 -25 -5 -52 -8 -27 -4 -52 -9 -55 -11 -4 -2 -38 -6
-76 -10 -39 -4 -72 -9 -75 -10 -3 -2 -26 -6 -50 -10 -25 -3 -56 -8 -70 -10
-14 -3 -56 -9 -95 -15 -38 -5 -80 -12 -92 -14 -11 -3 -43 -8 -70 -12 -26 -3
-55 -8 -63 -9 -8 -2 -39 -6 -67 -10 -52 -7 -53 -8 -63 -48 -6 -23 -13 -49 -15
-57 -2 -8 -6 -26 -9 -40 -2 -14 -12 -54 -21 -90 -9 -36 -18 -76 -21 -90 -2
-14 -7 -31 -9 -38 -3 -7 -18 -74 -35 -150 -17 -75 -34 -144 -37 -152 -4 -8 -8
-25 -9 -38 -2 -13 -8 -38 -13 -55 -6 -18 -13 -46 -15 -62 -3 -17 -15 -66 -26
-110 -12 -44 -23 -91 -26 -105 -3 -14 -16 -70 -29 -125 -13 -55 -29 -126 -36
-157 -7 -31 -17 -54 -23 -51 -5 4 -6 1 -1 -6 4 -7 2 -31 -4 -54 -9 -35 -55
-226 -66 -277 -9 -39 -67 -287 -71 -300 -9 -39 -26 -106 -28 -115 -2 -5 -9
-38 -16 -72 -7 -35 -15 -61 -19 -59 -3 2 -6 -8 -7 -22 0 -23 -5 -46 -18 -97
-1 -5 -8 -40 -16 -77 -7 -38 -17 -68 -21 -68 -3 0 -6 -8 -6 -17 0 -44 -4 -64
-11 -60 -4 3 -8 -7 -8 -21 -1 -25 -11 -77 -14 -77 -1 0 -4 -11 -6 -25 -3 -14
-9 -43 -15 -65 -6 -22 -13 -51 -16 -65 -2 -14 -20 -90 -39 -170 -19 -80 -46
-192 -60 -250 -21 -90 -33 -139 -39 -160 -1 -3 -5 -24 -9 -47 -4 -24 -12 -45
-16 -48 -5 -3 -7 -11 -4 -19 3 -7 0 -25 -6 -41 -6 -15 -13 -42 -16 -59 -3 -17
-22 -101 -43 -186 l-38 -155 33 -17 c83 -45 322 -119 454 -142 14 -2 36 -7 50
-10 14 -3 41 -8 60 -11 19 -2 44 -7 55 -9 156 -32 598 -36 761 -7 22 4 52 7
67 7 15 -1 27 1 27 5 0 3 6 6 13 6 22 2 167 43 219 63 28 11 55 17 60 14 4 -3
8 -1 8 3 0 14 98 56 112 47 7 -4 10 -3 5 1 -4 5 41 37 100 72 137 81 140 83
177 116 17 15 37 25 44 22 7 -3 11 -1 8 4 -3 4 25 34 62 67 37 32 71 64 75 71
5 8 13 10 19 7 6 -4 8 -3 5 3 -3 5 13 29 36 54 23 24 53 59 65 77 13 18 28 29
34 26 6 -4 8 -3 5 3 -3 5 21 49 54 99 33 49 85 141 117 204 31 63 59 117 62
120 3 3 6 12 7 20 1 8 16 56 33 105 32 90 64 216 75 290 3 22 8 54 10 70 7 44
17 167 16 190 -6 87 -5 155 2 155 4 0 3 9 -3 19 -5 11 -10 38 -10 60 0 49 -35
235 -55 291 -8 22 -15 44 -16 48 -4 16 -14 41 -44 107 -17 39 -33 75 -35 80
-2 6 -8 15 -12 20 -5 6 -30 39 -56 75 -56 77 -106 127 -187 188 -70 52 -204
121 -255 130 -3 0 -17 5 -33 11 -67 26 -165 38 -287 37 -61 -1 -110 3 -110 7
0 4 -8 3 -18 -2 -9 -5 -40 -11 -67 -13 -28 -2 -56 -7 -63 -12 -8 -4 -37 -14
-65 -21 -29 -7 -76 -22 -104 -33 -29 -12 -53 -20 -53 -18 0 2 13 53 29 115 16
61 28 111 25 111 -2 0 1 12 7 28 6 15 13 36 15 47 19 97 27 125 35 131 5 3 7
9 5 12 -2 4 4 43 15 87 11 44 21 89 23 100 2 11 17 76 34 145 17 69 33 136 36
150 2 14 21 93 41 175 78 319 74 302 59 302 -8 0 -15 -1 -16 -3z m105 -2008
c71 -24 126 -62 126 -89 1 -10 5 -15 11 -12 14 9 68 -112 86 -192 23 -103 25
-327 4 -443 -21 -112 -22 -116 -50 -199 -25 -74 -68 -163 -84 -173 -6 -4 -7
-8 -3 -8 8 0 -39 -87 -59 -107 -7 -7 -22 -28 -34 -48 -12 -19 -26 -35 -31 -35
-5 0 -9 -7 -9 -16 0 -10 -5 -14 -16 -10 -9 3 -12 2 -8 -5 12 -20 -138 -147
-240 -204 -27 -14 -90 -40 -140 -57 -84 -29 -104 -31 -249 -34 -87 -2 -156 0
-153 4 2 4 -11 7 -29 6 -64 -3 -68 9 -40 116 13 52 26 106 28 120 3 14 10 45
17 70 12 44 15 59 25 103 2 12 7 34 11 50 3 15 9 25 14 22 4 -3 6 3 3 13 -2
10 8 65 22 123 15 57 28 111 30 120 5 26 53 224 81 334 25 99 32 128 33 153 1
7 4 11 9 9 4 -3 7 9 8 26 1 18 4 43 7 57 4 14 15 58 24 98 10 41 22 70 26 66
4 -5 5 0 1 9 -8 21 6 33 91 81 52 29 135 55 225 70 71 11 202 2 263 -18z"/>
<path d="M2406 4823 c-2 -2 -23 -5 -47 -8 -24 -3 -64 -7 -89 -10 -156 -17
-406 -91 -565 -167 -44 -21 -87 -43 -95 -48 -8 -6 -24 -14 -35 -19 -33 -14
-186 -120 -245 -169 -58 -48 -220 -209 -220 -218 0 -3 -15 -24 -34 -47 -104
-128 -252 -417 -281 -547 -2 -8 -13 -55 -25 -104 -11 -50 -23 -106 -26 -125
-3 -20 -7 -47 -10 -61 -14 -86 -23 -466 -11 -487 2 -4 7 -35 11 -68 4 -33 9
-74 13 -90 3 -17 6 -38 7 -47 0 -10 4 -18 8 -18 4 0 8 -9 8 -20 0 -11 12 -50
26 -87 14 -38 26 -74 27 -80 0 -7 4 -13 8 -13 4 0 11 -10 14 -22 4 -11 20 -43
36 -71 17 -27 31 -54 32 -60 1 -7 7 -16 13 -22 6 -5 28 -32 50 -60 21 -27 52
-60 67 -74 16 -13 26 -30 23 -38 -3 -8 -1 -11 5 -8 10 7 44 -12 70 -37 41 -41
220 -128 262 -128 9 0 17 -4 17 -9 0 -5 6 -9 13 -8 36 1 68 -4 64 -10 -3 -5
16 -9 41 -10 102 -4 248 -3 272 2 14 3 48 8 75 11 28 3 58 11 69 16 14 8 17 7
10 -4 -6 -10 -5 -11 7 -1 14 12 96 35 113 33 5 -1 12 2 15 7 10 14 71 32 71
21 0 -5 -9 -46 -20 -91 -10 -45 -33 -140 -50 -212 -18 -71 -33 -139 -36 -150
-2 -11 -7 -33 -11 -50 -4 -16 -6 -33 -5 -37 1 -5 -3 -8 -9 -8 -5 0 -8 -4 -5
-8 3 -5 -1 -33 -9 -63 -8 -30 -16 -65 -19 -79 -18 -82 -33 -145 -36 -145 -1 0
-3 -11 -5 -25 -2 -14 -9 -45 -15 -70 -6 -25 -13 -60 -16 -77 l-6 -33 405 0
405 0 11 30 c5 17 8 30 6 30 -3 0 0 11 5 26 6 14 12 39 15 57 3 18 11 50 16
72 6 22 12 47 14 55 2 8 11 47 20 85 9 39 18 75 19 80 1 6 11 46 21 90 10 44
21 82 24 85 3 3 7 16 7 30 2 31 12 77 23 110 5 14 17 63 27 110 10 47 20 87
23 90 3 3 7 16 8 30 5 52 59 260 66 253 5 -4 5 0 2 9 -4 9 -1 35 5 59 7 24 13
51 15 59 3 17 53 226 60 250 2 8 10 47 19 85 8 39 27 117 41 175 33 129 34
135 40 163 12 56 37 153 42 167 3 8 6 18 5 22 -1 4 14 69 33 145 18 76 37 152
40 168 8 40 13 60 15 60 1 0 4 14 6 30 3 17 12 55 20 85 8 30 17 66 20 80 3
14 17 72 31 130 30 123 31 131 32 148 1 7 4 11 9 9 4 -3 8 15 8 39 1 24 7 50
13 57 6 8 9 16 6 19 -3 2 4 40 15 84 11 43 22 88 25 99 9 43 14 64 31 131 9
38 17 75 17 82 0 6 3 12 6 12 3 0 7 11 7 25 1 14 5 33 9 43 4 9 9 31 11 48 4
27 0 32 -28 42 -18 6 -67 23 -108 37 -41 15 -79 28 -85 29 -5 2 -17 5 -25 8
-33 12 -200 56 -240 64 -14 2 -45 9 -70 14 -63 13 -126 22 -250 36 -61 7 -409
12 -414 7z m269 -687 c15 -3 20 -11 19 -32 -2 -50 -46 -224 -55 -218 -5 3 -6
-9 -3 -26 4 -20 3 -30 -5 -30 -7 0 -10 -4 -7 -8 3 -5 -2 -35 -10 -68 -18 -72
-21 -85 -35 -151 -7 -29 -16 -53 -21 -53 -5 0 -7 -4 -3 -10 5 -8 -3 -49 -29
-150 -8 -30 -48 -195 -51 -211 -2 -9 -15 -63 -29 -120 -14 -57 -37 -153 -51
-214 -15 -60 -32 -113 -38 -117 -9 -6 -9 -8 0 -8 9 0 9 -8 1 -32 -16 -48 -21
-53 -116 -99 -124 -60 -204 -79 -332 -76 -90 2 -113 6 -161 28 -113 53 -182
154 -203 295 -4 22 -9 51 -11 64 -5 20 -6 132 -4 313 0 9 3 17 7 17 4 0 7 21
8 48 1 44 37 203 52 226 3 6 7 18 9 26 3 26 104 220 114 220 5 0 9 6 9 13 0
12 33 54 94 117 101 106 220 183 349 225 101 33 117 36 227 41 52 3 99 7 104
8 8 2 121 -10 171 -18z"/>
<path d="M4350 1559 c0 -5 5 -7 10 -4 6 3 10 8 10 11 0 2 -4 4 -10 4 -5 0 -10
-5 -10 -11z"/>
</g>
</svg>
